<mxfile host="Electron" agent="Mozilla/5.0 (Windows NT 10.0; Win64; x64) AppleWebKit/537.36 (KHTML, like Gecko) draw.io/26.2.2 Chrome/134.0.6998.178 Electron/35.1.2 Safari/537.36" version="26.2.2">
  <diagram name="Page-1" id="_9vZ8oShTqBhKoVnPYbj">
    <mxGraphModel dx="2856" dy="1778" grid="1" gridSize="10" guides="1" tooltips="1" connect="1" arrows="1" fold="1" page="1" pageScale="1" pageWidth="827" pageHeight="1169" math="0" shadow="0">
      <root>
        <mxCell id="0" />
        <mxCell id="1" parent="0" />
        <mxCell id="Md7voPXawlqijYOtu8PX-1" value="" style="group;fontSize=18;" vertex="1" connectable="0" parent="1">
          <mxGeometry x="150" y="150" width="3040" height="2040" as="geometry" />
        </mxCell>
        <mxCell id="8zWX4DSV_wn8XyTYf-UK-1" value="1.0" style="swimlane;whiteSpace=wrap;html=1;fontSize=18;" parent="Md7voPXawlqijYOtu8PX-1" vertex="1">
          <mxGeometry x="1240.32" y="995.9433962264152" width="243.2" height="173.2075471698113" as="geometry" />
        </mxCell>
        <mxCell id="8zWX4DSV_wn8XyTYf-UK-2" value="&amp;nbsp;Log In&lt;div&gt;&lt;br&gt;&lt;/div&gt;" style="text;html=1;align=center;verticalAlign=middle;resizable=0;points=[];autosize=1;strokeColor=none;fillColor=none;fontSize=18;" parent="8zWX4DSV_wn8XyTYf-UK-1" vertex="1">
          <mxGeometry x="74.03999999999999" y="67.16981132075472" width="80" height="60" as="geometry" />
        </mxCell>
        <mxCell id="8zWX4DSV_wn8XyTYf-UK-3" value="&lt;font&gt;Admin&lt;/font&gt;" style="rounded=0;whiteSpace=wrap;html=1;fontSize=18;" parent="Md7voPXawlqijYOtu8PX-1" vertex="1">
          <mxGeometry x="723.52" y="1029.6226415094338" width="206.72" height="163.58490566037736" as="geometry" />
        </mxCell>
        <mxCell id="8zWX4DSV_wn8XyTYf-UK-4" value="" style="endArrow=classic;html=1;rounded=0;entryX=1;entryY=0.75;entryDx=0;entryDy=0;fontSize=18;" parent="Md7voPXawlqijYOtu8PX-1" edge="1">
          <mxGeometry width="50" height="50" relative="1" as="geometry">
            <mxPoint x="1240.32" y="1116.2264150943395" as="sourcePoint" />
            <mxPoint x="930.2399999999999" y="1116.2264150943395" as="targetPoint" />
          </mxGeometry>
        </mxCell>
        <mxCell id="8zWX4DSV_wn8XyTYf-UK-5" value="Dashboard Display" style="edgeLabel;html=1;align=center;verticalAlign=middle;resizable=0;points=[];fontSize=18;" parent="8zWX4DSV_wn8XyTYf-UK-4" vertex="1" connectable="0">
          <mxGeometry x="0.0261" relative="1" as="geometry">
            <mxPoint as="offset" />
          </mxGeometry>
        </mxCell>
        <mxCell id="8zWX4DSV_wn8XyTYf-UK-6" value="" style="endArrow=classic;html=1;rounded=0;exitX=1.025;exitY=0.383;exitDx=0;exitDy=0;exitPerimeter=0;fontSize=18;" parent="Md7voPXawlqijYOtu8PX-1" edge="1">
          <mxGeometry width="50" height="50" relative="1" as="geometry">
            <mxPoint x="933.8880000000009" y="1073.8483018867933" as="sourcePoint" />
            <mxPoint x="1246.4" y="1083.509433962264" as="targetPoint" />
          </mxGeometry>
        </mxCell>
        <mxCell id="8zWX4DSV_wn8XyTYf-UK-7" value="Email&amp;amp;Password" style="edgeLabel;html=1;align=center;verticalAlign=middle;resizable=0;points=[];fontSize=18;" parent="8zWX4DSV_wn8XyTYf-UK-6" vertex="1" connectable="0">
          <mxGeometry x="-0.0749" relative="1" as="geometry">
            <mxPoint as="offset" />
          </mxGeometry>
        </mxCell>
        <mxCell id="8zWX4DSV_wn8XyTYf-UK-8" value="2.0" style="swimlane;whiteSpace=wrap;html=1;fontSize=18;" parent="Md7voPXawlqijYOtu8PX-1" vertex="1">
          <mxGeometry x="723.52" y="529.2837735849056" width="243.2" height="173.2075471698113" as="geometry" />
        </mxCell>
        <mxCell id="8zWX4DSV_wn8XyTYf-UK-9" value="Manage Users" style="text;html=1;align=center;verticalAlign=middle;resizable=0;points=[];autosize=1;strokeColor=none;fillColor=none;fontSize=18;" parent="8zWX4DSV_wn8XyTYf-UK-8" vertex="1">
          <mxGeometry x="11.118709677419353" y="48.886792452830186" width="140" height="40" as="geometry" />
        </mxCell>
        <mxCell id="8zWX4DSV_wn8XyTYf-UK-10" value="" style="endArrow=classic;html=1;rounded=0;entryX=0.583;entryY=0.083;entryDx=0;entryDy=0;entryPerimeter=0;fontSize=18;" parent="Md7voPXawlqijYOtu8PX-1" edge="1">
          <mxGeometry width="50" height="50" relative="1" as="geometry">
            <mxPoint x="845.1199999999999" y="702.4913207547169" as="sourcePoint" />
            <mxPoint x="845.0713600000012" y="1029.6226415094343" as="targetPoint" />
          </mxGeometry>
        </mxCell>
        <mxCell id="8zWX4DSV_wn8XyTYf-UK-11" value="User Data" style="edgeLabel;html=1;align=center;verticalAlign=middle;resizable=0;points=[];fontSize=18;" parent="8zWX4DSV_wn8XyTYf-UK-10" vertex="1" connectable="0">
          <mxGeometry x="0.0101" y="-1" relative="1" as="geometry">
            <mxPoint y="29" as="offset" />
          </mxGeometry>
        </mxCell>
        <mxCell id="8zWX4DSV_wn8XyTYf-UK-12" value="" style="endArrow=classic;html=1;rounded=0;exitX=0.25;exitY=0;exitDx=0;exitDy=0;fontSize=18;" parent="Md7voPXawlqijYOtu8PX-1" edge="1">
          <mxGeometry width="50" height="50" relative="1" as="geometry">
            <mxPoint x="796.4799999999999" y="1020.0384905660377" as="sourcePoint" />
            <mxPoint x="796.4799999999999" y="702.4913207547169" as="targetPoint" />
          </mxGeometry>
        </mxCell>
        <mxCell id="8zWX4DSV_wn8XyTYf-UK-13" value="User Managment" style="edgeLabel;html=1;align=center;verticalAlign=middle;resizable=0;points=[];fontSize=18;" parent="8zWX4DSV_wn8XyTYf-UK-12" vertex="1" connectable="0">
          <mxGeometry x="0.1077" y="-2" relative="1" as="geometry">
            <mxPoint as="offset" />
          </mxGeometry>
        </mxCell>
        <mxCell id="8zWX4DSV_wn8XyTYf-UK-14" value="Users" style="shape=cylinder3;whiteSpace=wrap;html=1;boundedLbl=1;backgroundOutline=1;size=11;fontSize=18;" parent="Md7voPXawlqijYOtu8PX-1" vertex="1">
          <mxGeometry x="1088.32" y="538.9064150943396" width="48.63999999999999" height="86.60377358490565" as="geometry" />
        </mxCell>
        <mxCell id="8zWX4DSV_wn8XyTYf-UK-15" value="" style="endArrow=classic;html=1;rounded=0;exitX=0;exitY=0.5;exitDx=0;exitDy=0;exitPerimeter=0;fontSize=18;" parent="Md7voPXawlqijYOtu8PX-1" source="8zWX4DSV_wn8XyTYf-UK-14" edge="1">
          <mxGeometry width="50" height="50" relative="1" as="geometry">
            <mxPoint x="1036.6399999999999" y="586.057358490566" as="sourcePoint" />
            <mxPoint x="966.7199999999999" y="583.1705660377357" as="targetPoint" />
          </mxGeometry>
        </mxCell>
        <mxCell id="8zWX4DSV_wn8XyTYf-UK-16" value="T1" style="text;html=1;align=center;verticalAlign=middle;whiteSpace=wrap;rounded=0;fontSize=18;" parent="Md7voPXawlqijYOtu8PX-1" vertex="1">
          <mxGeometry x="1094.4" y="548.5290566037736" width="36.48" height="38.490566037735846" as="geometry" />
        </mxCell>
        <mxCell id="8zWX4DSV_wn8XyTYf-UK-17" value="3.0" style="swimlane;whiteSpace=wrap;html=1;fontSize=18;" parent="Md7voPXawlqijYOtu8PX-1" vertex="1">
          <mxGeometry x="283.27936000000005" y="976.6981132075473" width="231.04" height="173.2075471698113" as="geometry" />
        </mxCell>
        <mxCell id="8zWX4DSV_wn8XyTYf-UK-18" value="Book Management" style="text;html=1;align=center;verticalAlign=middle;resizable=0;points=[];autosize=1;strokeColor=none;fillColor=none;fontSize=18;" parent="8zWX4DSV_wn8XyTYf-UK-17" vertex="1">
          <mxGeometry x="14.158709677419356" y="71.98113207547169" width="170" height="40" as="geometry" />
        </mxCell>
        <mxCell id="8zWX4DSV_wn8XyTYf-UK-19" value="" style="endArrow=classic;html=1;rounded=0;exitX=0;exitY=0.75;exitDx=0;exitDy=0;fontSize=18;" parent="Md7voPXawlqijYOtu8PX-1" edge="1">
          <mxGeometry width="50" height="50" relative="1" as="geometry">
            <mxPoint x="721.03936" y="1092.1698113207547" as="sourcePoint" />
            <mxPoint x="514.3193600000001" y="1092.1698113207547" as="targetPoint" />
          </mxGeometry>
        </mxCell>
        <mxCell id="8zWX4DSV_wn8XyTYf-UK-20" value="Book Info" style="edgeLabel;html=1;align=center;verticalAlign=middle;resizable=0;points=[];fontSize=18;" parent="8zWX4DSV_wn8XyTYf-UK-19" vertex="1" connectable="0">
          <mxGeometry x="0.0235" y="3" relative="1" as="geometry">
            <mxPoint as="offset" />
          </mxGeometry>
        </mxCell>
        <mxCell id="8zWX4DSV_wn8XyTYf-UK-21" value="" style="endArrow=classic;html=1;rounded=0;entryX=0.017;entryY=0.383;entryDx=0;entryDy=0;entryPerimeter=0;fontSize=18;" parent="Md7voPXawlqijYOtu8PX-1" edge="1">
          <mxGeometry width="50" height="50" relative="1" as="geometry">
            <mxPoint x="514.3193600000001" y="1053.6792452830189" as="sourcePoint" />
            <mxPoint x="723.520000000001" y="1049.7916981132075" as="targetPoint" />
          </mxGeometry>
        </mxCell>
        <mxCell id="8zWX4DSV_wn8XyTYf-UK-22" value="Book Management" style="edgeLabel;html=1;align=center;verticalAlign=middle;resizable=0;points=[];fontSize=18;" parent="8zWX4DSV_wn8XyTYf-UK-21" vertex="1" connectable="0">
          <mxGeometry x="-0.105" y="-1" relative="1" as="geometry">
            <mxPoint as="offset" />
          </mxGeometry>
        </mxCell>
        <mxCell id="8zWX4DSV_wn8XyTYf-UK-23" value="Books" style="shape=cylinder3;whiteSpace=wrap;html=1;boundedLbl=1;backgroundOutline=1;size=11;fontSize=18;" parent="Md7voPXawlqijYOtu8PX-1" vertex="1">
          <mxGeometry x="374.47936" y="688.0188679245283" width="48.63999999999999" height="86.60377358490565" as="geometry" />
        </mxCell>
        <mxCell id="8zWX4DSV_wn8XyTYf-UK-24" value="T2" style="text;html=1;align=center;verticalAlign=middle;whiteSpace=wrap;rounded=0;fontSize=18;" parent="Md7voPXawlqijYOtu8PX-1" vertex="1">
          <mxGeometry x="380.55936" y="688.0188679245283" width="36.48" height="38.490566037735846" as="geometry" />
        </mxCell>
        <mxCell id="8zWX4DSV_wn8XyTYf-UK-25" value="" style="endArrow=classic;html=1;rounded=0;exitX=0.5;exitY=1;exitDx=0;exitDy=0;exitPerimeter=0;entryX=0.5;entryY=0;entryDx=0;entryDy=0;fontSize=18;" parent="Md7voPXawlqijYOtu8PX-1" source="8zWX4DSV_wn8XyTYf-UK-23" target="8zWX4DSV_wn8XyTYf-UK-17" edge="1">
          <mxGeometry width="50" height="50" relative="1" as="geometry">
            <mxPoint x="417.03936" y="841.9811320754717" as="sourcePoint" />
            <mxPoint x="380.55936" y="957.4528301886792" as="targetPoint" />
          </mxGeometry>
        </mxCell>
        <mxCell id="8zWX4DSV_wn8XyTYf-UK-26" value="4.0" style="swimlane;whiteSpace=wrap;html=1;fontSize=18;" parent="Md7voPXawlqijYOtu8PX-1" vertex="1">
          <mxGeometry x="747.8399999999999" y="1472.264150943396" width="243.2" height="173.2075471698113" as="geometry" />
        </mxCell>
        <mxCell id="8zWX4DSV_wn8XyTYf-UK-27" value="Academic Management" style="text;html=1;align=center;verticalAlign=middle;resizable=0;points=[];autosize=1;strokeColor=none;fillColor=none;fontSize=18;" parent="8zWX4DSV_wn8XyTYf-UK-26" vertex="1">
          <mxGeometry x="-9.081290322580646" y="71.98113207547169" width="210" height="40" as="geometry" />
        </mxCell>
        <mxCell id="8zWX4DSV_wn8XyTYf-UK-28" value="" style="endArrow=classic;html=1;rounded=0;entryX=0.567;entryY=0.967;entryDx=0;entryDy=0;entryPerimeter=0;fontSize=18;" parent="Md7voPXawlqijYOtu8PX-1" edge="1">
          <mxGeometry width="50" height="50" relative="1" as="geometry">
            <mxPoint x="870.63168" y="1472.264150943396" as="sourcePoint" />
            <mxPoint x="868.2483199999999" y="1189.3969811320753" as="targetPoint" />
          </mxGeometry>
        </mxCell>
        <mxCell id="8zWX4DSV_wn8XyTYf-UK-29" value="Academic Info" style="edgeLabel;html=1;align=center;verticalAlign=middle;resizable=0;points=[];fontSize=18;" parent="8zWX4DSV_wn8XyTYf-UK-28" vertex="1" connectable="0">
          <mxGeometry x="-0.2242" y="1" relative="1" as="geometry">
            <mxPoint x="1" y="7" as="offset" />
          </mxGeometry>
        </mxCell>
        <mxCell id="8zWX4DSV_wn8XyTYf-UK-30" value="" style="endArrow=classic;html=1;rounded=0;entryX=0.3;entryY=0;entryDx=0;entryDy=0;entryPerimeter=0;exitX=0.25;exitY=1;exitDx=0;exitDy=0;fontSize=18;" parent="Md7voPXawlqijYOtu8PX-1" target="8zWX4DSV_wn8XyTYf-UK-26" edge="1">
          <mxGeometry width="50" height="50" relative="1" as="geometry">
            <mxPoint x="820.8" y="1193.207547169811" as="sourcePoint" />
            <mxPoint x="796.4799999999999" y="1202.8301886792453" as="targetPoint" />
          </mxGeometry>
        </mxCell>
        <mxCell id="8zWX4DSV_wn8XyTYf-UK-31" value="Academic Management" style="edgeLabel;html=1;align=center;verticalAlign=middle;resizable=0;points=[];fontSize=18;" parent="8zWX4DSV_wn8XyTYf-UK-30" vertex="1" connectable="0">
          <mxGeometry x="-0.1172" y="3" relative="1" as="geometry">
            <mxPoint as="offset" />
          </mxGeometry>
        </mxCell>
        <mxCell id="8zWX4DSV_wn8XyTYf-UK-32" value="&lt;font&gt;Accademic&lt;/font&gt;" style="shape=cylinder3;whiteSpace=wrap;html=1;boundedLbl=1;backgroundOutline=1;size=11;fontSize=18;" parent="Md7voPXawlqijYOtu8PX-1" vertex="1">
          <mxGeometry x="516.8" y="1530.0000000000002" width="48.63999999999999" height="86.60377358490565" as="geometry" />
        </mxCell>
        <mxCell id="8zWX4DSV_wn8XyTYf-UK-33" value="T3" style="text;html=1;align=center;verticalAlign=middle;whiteSpace=wrap;rounded=0;fontSize=18;" parent="Md7voPXawlqijYOtu8PX-1" vertex="1">
          <mxGeometry x="504.63999999999993" y="1530.0000000000002" width="72.96" height="57.73584905660377" as="geometry" />
        </mxCell>
        <mxCell id="8zWX4DSV_wn8XyTYf-UK-34" value="" style="endArrow=classic;html=1;rounded=0;fontSize=18;" parent="Md7voPXawlqijYOtu8PX-1" edge="1">
          <mxGeometry width="50" height="50" relative="1" as="geometry">
            <mxPoint x="565.4399999999999" y="1568.4905660377358" as="sourcePoint" />
            <mxPoint x="747.8399999999999" y="1568.4905660377358" as="targetPoint" />
          </mxGeometry>
        </mxCell>
        <mxCell id="8zWX4DSV_wn8XyTYf-UK-35" value="Student" style="rounded=0;whiteSpace=wrap;html=1;fontSize=18;" parent="Md7voPXawlqijYOtu8PX-1" vertex="1">
          <mxGeometry x="1848.32" y="991.132075471698" width="291.84" height="202.0754716981132" as="geometry" />
        </mxCell>
        <mxCell id="8zWX4DSV_wn8XyTYf-UK-36" value="" style="endArrow=classic;html=1;rounded=0;exitX=0;exitY=0.75;exitDx=0;exitDy=0;fontSize=18;" parent="Md7voPXawlqijYOtu8PX-1" edge="1">
          <mxGeometry width="50" height="50" relative="1" as="geometry">
            <mxPoint x="1848.32" y="1118.632075471698" as="sourcePoint" />
            <mxPoint x="1483.5199999999998" y="1111.4150943396226" as="targetPoint" />
          </mxGeometry>
        </mxCell>
        <mxCell id="8zWX4DSV_wn8XyTYf-UK-37" value="Email&amp;amp;Password" style="edgeLabel;html=1;align=center;verticalAlign=middle;resizable=0;points=[];fontSize=18;" parent="8zWX4DSV_wn8XyTYf-UK-36" vertex="1" connectable="0">
          <mxGeometry x="-0.0577" y="-1" relative="1" as="geometry">
            <mxPoint as="offset" />
          </mxGeometry>
        </mxCell>
        <mxCell id="8zWX4DSV_wn8XyTYf-UK-38" value="" style="endArrow=classic;html=1;rounded=0;entryX=-0.011;entryY=0.385;entryDx=0;entryDy=0;entryPerimeter=0;fontSize=18;" parent="Md7voPXawlqijYOtu8PX-1" edge="1">
          <mxGeometry width="50" height="50" relative="1" as="geometry">
            <mxPoint x="1483.5199999999998" y="1072.9245283018868" as="sourcePoint" />
            <mxPoint x="1846.5811199999994" y="1072.972641509434" as="targetPoint" />
          </mxGeometry>
        </mxCell>
        <mxCell id="8zWX4DSV_wn8XyTYf-UK-39" value="Website Features Access" style="edgeLabel;html=1;align=center;verticalAlign=middle;resizable=0;points=[];fontSize=18;" parent="8zWX4DSV_wn8XyTYf-UK-38" vertex="1" connectable="0">
          <mxGeometry x="0.0012" y="-1" relative="1" as="geometry">
            <mxPoint as="offset" />
          </mxGeometry>
        </mxCell>
        <mxCell id="8zWX4DSV_wn8XyTYf-UK-40" value="9.0" style="swimlane;whiteSpace=wrap;html=1;fontSize=18;" parent="Md7voPXawlqijYOtu8PX-1" vertex="1">
          <mxGeometry x="1945.6" y="519.4686792452829" width="243.2" height="173.2075471698113" as="geometry" />
        </mxCell>
        <mxCell id="8zWX4DSV_wn8XyTYf-UK-41" value="Books Exchange" style="text;html=1;align=center;verticalAlign=middle;resizable=0;points=[];autosize=1;strokeColor=none;fillColor=none;fontSize=18;" parent="8zWX4DSV_wn8XyTYf-UK-40" vertex="1">
          <mxGeometry x="26.479999999999997" y="71.98113207547169" width="160" height="40" as="geometry" />
        </mxCell>
        <mxCell id="8zWX4DSV_wn8XyTYf-UK-42" value="" style="endArrow=classic;html=1;rounded=0;entryX=0.649;entryY=0.043;entryDx=0;entryDy=0;entryPerimeter=0;fontSize=18;" parent="Md7voPXawlqijYOtu8PX-1" edge="1">
          <mxGeometry width="50" height="50" relative="1" as="geometry">
            <mxPoint x="2018.4019199999996" y="692.6762264150941" as="sourcePoint" />
            <mxPoint x="2018.2559999999999" y="995.9433962264152" as="targetPoint" />
          </mxGeometry>
        </mxCell>
        <mxCell id="8zWX4DSV_wn8XyTYf-UK-43" value="Send Request" style="edgeLabel;html=1;align=center;verticalAlign=middle;resizable=0;points=[];fontSize=18;" parent="8zWX4DSV_wn8XyTYf-UK-42" vertex="1" connectable="0">
          <mxGeometry x="0.3699" y="1" relative="1" as="geometry">
            <mxPoint as="offset" />
          </mxGeometry>
        </mxCell>
        <mxCell id="8zWX4DSV_wn8XyTYf-UK-44" value="" style="endArrow=classic;html=1;rounded=0;fontSize=18;" parent="Md7voPXawlqijYOtu8PX-1" edge="1">
          <mxGeometry width="50" height="50" relative="1" as="geometry">
            <mxPoint x="1963.8399999999997" y="990.9781132075474" as="sourcePoint" />
            <mxPoint x="1963.8399999999997" y="692.6762264150941" as="targetPoint" />
          </mxGeometry>
        </mxCell>
        <mxCell id="8zWX4DSV_wn8XyTYf-UK-45" value="Book take choice" style="edgeLabel;html=1;align=center;verticalAlign=middle;resizable=0;points=[];fontSize=18;" parent="8zWX4DSV_wn8XyTYf-UK-44" vertex="1" connectable="0">
          <mxGeometry x="0.0167" y="-1" relative="1" as="geometry">
            <mxPoint as="offset" />
          </mxGeometry>
        </mxCell>
        <mxCell id="8zWX4DSV_wn8XyTYf-UK-46" value="Books" style="shape=cylinder3;whiteSpace=wrap;html=1;boundedLbl=1;backgroundOutline=1;size=11;fontSize=18;" parent="Md7voPXawlqijYOtu8PX-1" vertex="1">
          <mxGeometry x="2042.8799999999999" y="192.45283018867926" width="48.63999999999999" height="86.60377358490565" as="geometry" />
        </mxCell>
        <mxCell id="8zWX4DSV_wn8XyTYf-UK-47" value="" style="endArrow=classic;html=1;rounded=0;exitX=0;exitY=0.5;exitDx=0;exitDy=0;exitPerimeter=0;entryX=1;entryY=0.5;entryDx=0;entryDy=0;fontSize=18;" parent="Md7voPXawlqijYOtu8PX-1" edge="1">
          <mxGeometry width="50" height="50" relative="1" as="geometry">
            <mxPoint x="2071.8451199999995" y="283.86792452830167" as="sourcePoint" />
            <mxPoint x="2071.8451199999995" y="519.4686792452829" as="targetPoint" />
          </mxGeometry>
        </mxCell>
        <mxCell id="8zWX4DSV_wn8XyTYf-UK-48" value="6.0" style="swimlane;whiteSpace=wrap;html=1;fontSize=18;" parent="Md7voPXawlqijYOtu8PX-1" vertex="1">
          <mxGeometry x="1459.1999999999998" y="500.41584905660375" width="243.2" height="173.2075471698113" as="geometry" />
        </mxCell>
        <mxCell id="8zWX4DSV_wn8XyTYf-UK-49" value="Sign Up" style="text;html=1;align=center;verticalAlign=middle;resizable=0;points=[];autosize=1;strokeColor=none;fillColor=none;fontSize=18;" parent="8zWX4DSV_wn8XyTYf-UK-48" vertex="1">
          <mxGeometry x="67.96" y="71.98113207547169" width="90" height="40" as="geometry" />
        </mxCell>
        <mxCell id="8zWX4DSV_wn8XyTYf-UK-50" value="" style="endArrow=classic;html=1;rounded=0;fontSize=18;" parent="Md7voPXawlqijYOtu8PX-1" edge="1">
          <mxGeometry width="50" height="50" relative="1" as="geometry">
            <mxPoint x="1884.7999999999997" y="981.5479245283018" as="sourcePoint" />
            <mxPoint x="1665.9199999999998" y="673.623396226415" as="targetPoint" />
            <Array as="points">
              <mxPoint x="1884.7999999999997" y="885.3215094339622" />
              <mxPoint x="1665.9199999999998" y="885.3215094339622" />
            </Array>
          </mxGeometry>
        </mxCell>
        <mxCell id="8zWX4DSV_wn8XyTYf-UK-51" value="Name+Email+Password+Phone" style="edgeLabel;html=1;align=center;verticalAlign=middle;resizable=0;points=[];fontSize=18;" parent="8zWX4DSV_wn8XyTYf-UK-50" vertex="1" connectable="0">
          <mxGeometry x="0.0706" y="-3" relative="1" as="geometry">
            <mxPoint x="20" y="3" as="offset" />
          </mxGeometry>
        </mxCell>
        <mxCell id="8zWX4DSV_wn8XyTYf-UK-52" value="" style="endArrow=classic;html=1;rounded=0;entryX=0;entryY=0;entryDx=0;entryDy=0;exitX=0.75;exitY=1;exitDx=0;exitDy=0;fontSize=18;" parent="Md7voPXawlqijYOtu8PX-1" source="8zWX4DSV_wn8XyTYf-UK-48" edge="1">
          <mxGeometry width="50" height="50" relative="1" as="geometry">
            <mxPoint x="1629.4399999999998" y="692.868679245283" as="sourcePoint" />
            <mxPoint x="1860.4799999999998" y="991.1705660377357" as="targetPoint" />
            <Array as="points">
              <mxPoint x="1641.6" y="923.8120754716981" />
              <mxPoint x="1860.4799999999998" y="923.8120754716981" />
            </Array>
          </mxGeometry>
        </mxCell>
        <mxCell id="8zWX4DSV_wn8XyTYf-UK-53" value="Account Created" style="edgeLabel;html=1;align=center;verticalAlign=middle;resizable=0;points=[];fontSize=18;" parent="8zWX4DSV_wn8XyTYf-UK-52" vertex="1" connectable="0">
          <mxGeometry x="0.0667" y="-2" relative="1" as="geometry">
            <mxPoint as="offset" />
          </mxGeometry>
        </mxCell>
        <mxCell id="8zWX4DSV_wn8XyTYf-UK-54" value="Users" style="shape=cylinder3;whiteSpace=wrap;html=1;boundedLbl=1;backgroundOutline=1;size=11;fontSize=18;" parent="Md7voPXawlqijYOtu8PX-1" vertex="1">
          <mxGeometry x="1374.08" y="750.6045283018867" width="48.63999999999999" height="86.60377358490565" as="geometry" />
        </mxCell>
        <mxCell id="8zWX4DSV_wn8XyTYf-UK-55" value="" style="endArrow=classic;startArrow=classic;html=1;rounded=0;entryX=0.5;entryY=1;entryDx=0;entryDy=0;entryPerimeter=0;exitX=0.65;exitY=0.028;exitDx=0;exitDy=0;exitPerimeter=0;fontSize=18;" parent="Md7voPXawlqijYOtu8PX-1" source="8zWX4DSV_wn8XyTYf-UK-1" target="8zWX4DSV_wn8XyTYf-UK-54" edge="1">
          <mxGeometry width="50" height="50" relative="1" as="geometry">
            <mxPoint x="1398.3999999999999" y="962.302641509434" as="sourcePoint" />
            <mxPoint x="1459.1999999999998" y="866.0762264150943" as="targetPoint" />
          </mxGeometry>
        </mxCell>
        <mxCell id="8zWX4DSV_wn8XyTYf-UK-56" value="" style="endArrow=classic;html=1;rounded=0;entryX=0.5;entryY=0;entryDx=0;entryDy=0;entryPerimeter=0;fontSize=18;" parent="Md7voPXawlqijYOtu8PX-1" target="8zWX4DSV_wn8XyTYf-UK-54" edge="1">
          <mxGeometry width="50" height="50" relative="1" as="geometry">
            <mxPoint x="1459.1999999999998" y="577.3969811320754" as="sourcePoint" />
            <mxPoint x="1361.9199999999998" y="596.6422641509433" as="targetPoint" />
            <Array as="points">
              <mxPoint x="1398.3999999999999" y="577.3969811320754" />
            </Array>
          </mxGeometry>
        </mxCell>
        <mxCell id="8zWX4DSV_wn8XyTYf-UK-57" value="7.0" style="swimlane;whiteSpace=wrap;html=1;fontSize=18;" parent="Md7voPXawlqijYOtu8PX-1" vertex="1">
          <mxGeometry x="2422.8435199999994" y="991.132075471698" width="243.2" height="173.2075471698113" as="geometry" />
        </mxCell>
        <mxCell id="8zWX4DSV_wn8XyTYf-UK-58" value="Academic Staff" style="text;html=1;align=center;verticalAlign=middle;resizable=0;points=[];autosize=1;strokeColor=none;fillColor=none;fontSize=18;" parent="8zWX4DSV_wn8XyTYf-UK-57" vertex="1">
          <mxGeometry x="38.47870967741935" y="71.98113207547169" width="140" height="40" as="geometry" />
        </mxCell>
        <mxCell id="8zWX4DSV_wn8XyTYf-UK-59" value="" style="endArrow=classic;html=1;rounded=0;entryX=0.981;entryY=0.374;entryDx=0;entryDy=0;entryPerimeter=0;fontSize=18;" parent="Md7voPXawlqijYOtu8PX-1" edge="1">
          <mxGeometry width="50" height="50" relative="1" as="geometry">
            <mxPoint x="2422.8435199999994" y="1066.188679245283" as="sourcePoint" />
            <mxPoint x="2140.16" y="1066.7852830188676" as="targetPoint" />
          </mxGeometry>
        </mxCell>
        <mxCell id="8zWX4DSV_wn8XyTYf-UK-60" value="Staff Info" style="edgeLabel;html=1;align=center;verticalAlign=middle;resizable=0;points=[];fontSize=18;" parent="8zWX4DSV_wn8XyTYf-UK-59" vertex="1" connectable="0">
          <mxGeometry x="0.0491" y="-1" relative="1" as="geometry">
            <mxPoint as="offset" />
          </mxGeometry>
        </mxCell>
        <mxCell id="8zWX4DSV_wn8XyTYf-UK-61" value="" style="endArrow=classic;html=1;rounded=0;exitX=1;exitY=0.75;exitDx=0;exitDy=0;fontSize=18;" parent="Md7voPXawlqijYOtu8PX-1" edge="1">
          <mxGeometry width="50" height="50" relative="1" as="geometry">
            <mxPoint x="2143.16352" y="1113.8207547169811" as="sourcePoint" />
            <mxPoint x="2422.8435199999994" y="1114.301886792453" as="targetPoint" />
          </mxGeometry>
        </mxCell>
        <mxCell id="8zWX4DSV_wn8XyTYf-UK-62" value="Staff Details" style="edgeLabel;html=1;align=center;verticalAlign=middle;resizable=0;points=[];fontSize=18;" parent="8zWX4DSV_wn8XyTYf-UK-61" vertex="1" connectable="0">
          <mxGeometry x="-0.1115" y="-1" relative="1" as="geometry">
            <mxPoint as="offset" />
          </mxGeometry>
        </mxCell>
        <mxCell id="8zWX4DSV_wn8XyTYf-UK-63" value="Academic" style="shape=cylinder3;whiteSpace=wrap;html=1;boundedLbl=1;backgroundOutline=1;size=11;fontSize=18;" parent="Md7voPXawlqijYOtu8PX-1" vertex="1">
          <mxGeometry x="2717.76" y="1034.4339622641508" width="48.63999999999999" height="86.60377358490565" as="geometry" />
        </mxCell>
        <mxCell id="8zWX4DSV_wn8XyTYf-UK-64" value="" style="endArrow=classic;html=1;rounded=0;exitX=0;exitY=0;exitDx=0;exitDy=28.25;exitPerimeter=0;entryX=1;entryY=0.5;entryDx=0;entryDy=0;fontSize=18;" parent="Md7voPXawlqijYOtu8PX-1" source="8zWX4DSV_wn8XyTYf-UK-63" target="8zWX4DSV_wn8XyTYf-UK-57" edge="1">
          <mxGeometry width="50" height="50" relative="1" as="geometry">
            <mxPoint x="2702.52352" y="1068.1132075471696" as="sourcePoint" />
            <mxPoint x="2763.32352" y="971.8867924528302" as="targetPoint" />
          </mxGeometry>
        </mxCell>
        <mxCell id="8zWX4DSV_wn8XyTYf-UK-65" value="8.0" style="swimlane;whiteSpace=wrap;html=1;fontSize=18;" parent="Md7voPXawlqijYOtu8PX-1" vertex="1">
          <mxGeometry x="1896.9599999999998" y="1564.6415094339623" width="243.2" height="173.2075471698113" as="geometry" />
        </mxCell>
        <mxCell id="8zWX4DSV_wn8XyTYf-UK-66" value="Locate Halls" style="text;html=1;align=center;verticalAlign=middle;resizable=0;points=[];autosize=1;strokeColor=none;fillColor=none;fontSize=18;" parent="8zWX4DSV_wn8XyTYf-UK-65" vertex="1">
          <mxGeometry x="49.72" y="71.98113207547169" width="120" height="40" as="geometry" />
        </mxCell>
        <mxCell id="8zWX4DSV_wn8XyTYf-UK-67" value="" style="endArrow=classic;html=1;rounded=0;exitX=0.827;exitY=0.971;exitDx=0;exitDy=0;exitPerimeter=0;entryX=0.449;entryY=-0.014;entryDx=0;entryDy=0;entryPerimeter=0;fontSize=18;" parent="Md7voPXawlqijYOtu8PX-1" target="8zWX4DSV_wn8XyTYf-UK-65" edge="1">
          <mxGeometry width="50" height="50" relative="1" as="geometry">
            <mxPoint x="2003.3721600000001" y="1195.3533962264153" as="sourcePoint" />
            <mxPoint x="2006.3999999999999" y="1545.3962264150946" as="targetPoint" />
          </mxGeometry>
        </mxCell>
        <mxCell id="8zWX4DSV_wn8XyTYf-UK-68" value="Halls info" style="edgeLabel;html=1;align=center;verticalAlign=middle;resizable=0;points=[];fontSize=18;" parent="8zWX4DSV_wn8XyTYf-UK-67" vertex="1" connectable="0">
          <mxGeometry x="0.3532" relative="1" as="geometry">
            <mxPoint as="offset" />
          </mxGeometry>
        </mxCell>
        <mxCell id="8zWX4DSV_wn8XyTYf-UK-69" value="" style="endArrow=classic;html=1;rounded=0;exitX=0.225;exitY=0;exitDx=0;exitDy=0;exitPerimeter=0;fontSize=18;" parent="Md7voPXawlqijYOtu8PX-1" source="8zWX4DSV_wn8XyTYf-UK-65" edge="1">
          <mxGeometry width="50" height="50" relative="1" as="geometry">
            <mxPoint x="1951.6799999999998" y="1545.3962264150946" as="sourcePoint" />
            <mxPoint x="1951.6799999999998" y="1193.207547169811" as="targetPoint" />
          </mxGeometry>
        </mxCell>
        <mxCell id="8zWX4DSV_wn8XyTYf-UK-70" value="Halls Details" style="edgeLabel;html=1;align=center;verticalAlign=middle;resizable=0;points=[];fontSize=18;" parent="8zWX4DSV_wn8XyTYf-UK-69" vertex="1" connectable="0">
          <mxGeometry x="0.0662" y="2" relative="1" as="geometry">
            <mxPoint as="offset" />
          </mxGeometry>
        </mxCell>
        <mxCell id="8zWX4DSV_wn8XyTYf-UK-71" value="Halls" style="shape=cylinder3;whiteSpace=wrap;html=1;boundedLbl=1;backgroundOutline=1;size=11;fontSize=18;" parent="Md7voPXawlqijYOtu8PX-1" vertex="1">
          <mxGeometry x="1714.56" y="1635.8490566037733" width="48.63999999999999" height="86.60377358490565" as="geometry" />
        </mxCell>
        <mxCell id="8zWX4DSV_wn8XyTYf-UK-72" value="" style="endArrow=classic;html=1;rounded=0;exitX=0;exitY=0;exitDx=0;exitDy=28.25;exitPerimeter=0;fontSize=18;" parent="Md7voPXawlqijYOtu8PX-1" edge="1">
          <mxGeometry width="50" height="50" relative="1" as="geometry">
            <mxPoint x="1763.1999999999998" y="1683.9622641509434" as="sourcePoint" />
            <mxPoint x="1896.9599999999998" y="1684.4433962264152" as="targetPoint" />
          </mxGeometry>
        </mxCell>
        <mxCell id="8zWX4DSV_wn8XyTYf-UK-73" value="T1" style="text;html=1;align=center;verticalAlign=middle;whiteSpace=wrap;rounded=0;fontSize=18;" parent="Md7voPXawlqijYOtu8PX-1" vertex="1">
          <mxGeometry x="1380.1599999999999" y="750.6045283018867" width="36.48" height="38.490566037735846" as="geometry" />
        </mxCell>
        <mxCell id="8zWX4DSV_wn8XyTYf-UK-74" value="T2" style="text;html=1;align=center;verticalAlign=middle;whiteSpace=wrap;rounded=0;fontSize=18;" parent="Md7voPXawlqijYOtu8PX-1" vertex="1">
          <mxGeometry x="2048.9599999999996" y="197.26415094339623" width="36.48" height="38.490566037735846" as="geometry" />
        </mxCell>
        <mxCell id="8zWX4DSV_wn8XyTYf-UK-75" value="T3" style="text;html=1;align=center;verticalAlign=middle;whiteSpace=wrap;rounded=0;fontSize=18;" parent="Md7voPXawlqijYOtu8PX-1" vertex="1">
          <mxGeometry x="2723.84" y="1034.4339622641508" width="36.48" height="38.490566037735846" as="geometry" />
        </mxCell>
        <mxCell id="8zWX4DSV_wn8XyTYf-UK-76" value="T5" style="text;html=1;align=center;verticalAlign=middle;whiteSpace=wrap;rounded=0;fontSize=18;" parent="Md7voPXawlqijYOtu8PX-1" vertex="1">
          <mxGeometry x="1720.6399999999999" y="1645.4716981132074" width="36.48" height="38.490566037735846" as="geometry" />
        </mxCell>
        <mxCell id="8zWX4DSV_wn8XyTYf-UK-79" value="5.0" style="swimlane;whiteSpace=wrap;html=1;fontSize=18;" parent="Md7voPXawlqijYOtu8PX-1" vertex="1">
          <mxGeometry x="91.19999999999999" y="1299.0566037735848" width="231.04" height="173.2075471698113" as="geometry" />
        </mxCell>
        <mxCell id="8zWX4DSV_wn8XyTYf-UK-80" value="Department&amp;nbsp;&lt;div&gt;Management&lt;/div&gt;" style="text;html=1;align=center;verticalAlign=middle;resizable=0;points=[];autosize=1;strokeColor=none;fillColor=none;fontSize=18;" parent="8zWX4DSV_wn8XyTYf-UK-79" vertex="1">
          <mxGeometry x="38.47870967741935" y="52.73584905660377" width="130" height="60" as="geometry" />
        </mxCell>
        <mxCell id="8zWX4DSV_wn8XyTYf-UK-81" value="" style="endArrow=classic;html=1;rounded=0;entryX=-0.014;entryY=0.882;entryDx=0;entryDy=0;entryPerimeter=0;exitX=0.791;exitY=-0.004;exitDx=0;exitDy=0;exitPerimeter=0;fontSize=18;" parent="Md7voPXawlqijYOtu8PX-1" source="8zWX4DSV_wn8XyTYf-UK-79" target="8zWX4DSV_wn8XyTYf-UK-3" edge="1">
          <mxGeometry width="50" height="50" relative="1" as="geometry">
            <mxPoint x="273.6" y="1289.433962264151" as="sourcePoint" />
            <mxPoint x="261.44" y="1077.7358490566037" as="targetPoint" />
            <Array as="points">
              <mxPoint x="273.6" y="1173.9622641509434" />
            </Array>
          </mxGeometry>
        </mxCell>
        <mxCell id="8zWX4DSV_wn8XyTYf-UK-82" value="Department Management" style="edgeLabel;html=1;align=center;verticalAlign=middle;resizable=0;points=[];fontSize=18;" parent="8zWX4DSV_wn8XyTYf-UK-81" vertex="1" connectable="0">
          <mxGeometry x="0.1272" relative="1" as="geometry">
            <mxPoint x="58" as="offset" />
          </mxGeometry>
        </mxCell>
        <mxCell id="8zWX4DSV_wn8XyTYf-UK-83" value="" style="endArrow=classic;html=1;rounded=0;exitX=0;exitY=1;exitDx=0;exitDy=0;entryX=1;entryY=0;entryDx=0;entryDy=0;fontSize=18;" parent="Md7voPXawlqijYOtu8PX-1" source="8zWX4DSV_wn8XyTYf-UK-3" target="8zWX4DSV_wn8XyTYf-UK-79" edge="1">
          <mxGeometry width="50" height="50" relative="1" as="geometry">
            <mxPoint x="380.55936" y="1327.9245283018868" as="sourcePoint" />
            <mxPoint x="285.76" y="1193.207547169811" as="targetPoint" />
            <Array as="points">
              <mxPoint x="528.9599999999999" y="1193.207547169811" />
              <mxPoint x="322.23999999999995" y="1193.207547169811" />
            </Array>
          </mxGeometry>
        </mxCell>
        <mxCell id="8zWX4DSV_wn8XyTYf-UK-84" value="Department info" style="edgeLabel;html=1;align=center;verticalAlign=middle;resizable=0;points=[];fontSize=18;" parent="8zWX4DSV_wn8XyTYf-UK-83" vertex="1" connectable="0">
          <mxGeometry x="0.3108" y="2" relative="1" as="geometry">
            <mxPoint x="-1" as="offset" />
          </mxGeometry>
        </mxCell>
        <mxCell id="8zWX4DSV_wn8XyTYf-UK-85" value="Department" style="shape=cylinder3;whiteSpace=wrap;html=1;boundedLbl=1;backgroundOutline=1;size=11;fontSize=18;" parent="Md7voPXawlqijYOtu8PX-1" vertex="1">
          <mxGeometry x="193.344" y="1564.6415094339623" width="48.63999999999999" height="86.60377358490565" as="geometry" />
        </mxCell>
        <mxCell id="P4KERE7mAreb36h-4E0k-9" style="edgeStyle=orthogonalEdgeStyle;rounded=0;orthogonalLoop=1;jettySize=auto;html=1;fontSize=18;" parent="Md7voPXawlqijYOtu8PX-1" source="8zWX4DSV_wn8XyTYf-UK-86" edge="1">
          <mxGeometry relative="1" as="geometry">
            <mxPoint x="224.95999999999998" y="1481.8867924528302" as="targetPoint" />
          </mxGeometry>
        </mxCell>
        <mxCell id="8zWX4DSV_wn8XyTYf-UK-86" value="T4" style="text;html=1;align=center;verticalAlign=middle;whiteSpace=wrap;rounded=0;fontSize=18;" parent="Md7voPXawlqijYOtu8PX-1" vertex="1">
          <mxGeometry x="199.42399999999998" y="1564.6415094339623" width="36.48" height="38.490566037735846" as="geometry" />
        </mxCell>
        <mxCell id="8zWX4DSV_wn8XyTYf-UK-88" value="" style="endArrow=classic;html=1;rounded=0;fontSize=18;" parent="Md7voPXawlqijYOtu8PX-1" edge="1">
          <mxGeometry width="50" height="50" relative="1" as="geometry">
            <mxPoint x="2066.8959999999997" y="990.9781132075474" as="sourcePoint" />
            <mxPoint x="2066.8959999999997" y="692.6762264150941" as="targetPoint" />
          </mxGeometry>
        </mxCell>
        <mxCell id="8zWX4DSV_wn8XyTYf-UK-89" value="Book give&amp;nbsp;&lt;div&gt;choice&lt;/div&gt;" style="edgeLabel;html=1;align=center;verticalAlign=middle;resizable=0;points=[];fontSize=18;" parent="8zWX4DSV_wn8XyTYf-UK-88" vertex="1" connectable="0">
          <mxGeometry x="0.0167" y="-1" relative="1" as="geometry">
            <mxPoint as="offset" />
          </mxGeometry>
        </mxCell>
        <mxCell id="8zWX4DSV_wn8XyTYf-UK-90" value="" style="endArrow=classic;html=1;rounded=0;entryX=0.649;entryY=0.043;entryDx=0;entryDy=0;entryPerimeter=0;fontSize=18;" parent="Md7voPXawlqijYOtu8PX-1" edge="1">
          <mxGeometry width="50" height="50" relative="1" as="geometry">
            <mxPoint x="2109.9059199999997" y="687.8649056603773" as="sourcePoint" />
            <mxPoint x="2109.7599999999998" y="991.132075471698" as="targetPoint" />
          </mxGeometry>
        </mxCell>
        <mxCell id="8zWX4DSV_wn8XyTYf-UK-91" value="offer in public" style="edgeLabel;html=1;align=center;verticalAlign=middle;resizable=0;points=[];fontSize=18;" parent="8zWX4DSV_wn8XyTYf-UK-90" vertex="1" connectable="0">
          <mxGeometry x="0.3699" y="1" relative="1" as="geometry">
            <mxPoint y="15" as="offset" />
          </mxGeometry>
        </mxCell>
        <mxCell id="8zWX4DSV_wn8XyTYf-UK-92" value="" style="endArrow=classic;html=1;rounded=0;exitX=1.001;exitY=0.047;exitDx=0;exitDy=0;exitPerimeter=0;fontSize=18;" parent="Md7voPXawlqijYOtu8PX-1" source="8zWX4DSV_wn8XyTYf-UK-35" edge="1">
          <mxGeometry width="50" height="50" relative="1" as="geometry">
            <mxPoint x="2151.88224" y="990.9781132075474" as="sourcePoint" />
            <mxPoint x="2158.3999999999996" y="692.8301886792452" as="targetPoint" />
            <Array as="points">
              <mxPoint x="2158.3999999999996" y="1000.7547169811321" />
            </Array>
          </mxGeometry>
        </mxCell>
        <mxCell id="8zWX4DSV_wn8XyTYf-UK-93" value="book give for&lt;div&gt;take choice&lt;/div&gt;" style="edgeLabel;html=1;align=center;verticalAlign=middle;resizable=0;points=[];fontSize=18;" parent="8zWX4DSV_wn8XyTYf-UK-92" vertex="1" connectable="0">
          <mxGeometry x="0.0167" y="-1" relative="1" as="geometry">
            <mxPoint as="offset" />
          </mxGeometry>
        </mxCell>
        <mxCell id="8zWX4DSV_wn8XyTYf-UK-94" value="" style="endArrow=classic;html=1;rounded=0;entryX=0.998;entryY=0.139;entryDx=0;entryDy=0;entryPerimeter=0;fontSize=18;" parent="Md7voPXawlqijYOtu8PX-1" target="8zWX4DSV_wn8XyTYf-UK-35" edge="1">
          <mxGeometry width="50" height="50" relative="1" as="geometry">
            <mxPoint x="2188.8" y="654.3396226415094" as="sourcePoint" />
            <mxPoint x="2219.2" y="1039.245283018868" as="targetPoint" />
            <Array as="points">
              <mxPoint x="2255.68" y="654.3396226415094" />
              <mxPoint x="2255.68" y="1020" />
            </Array>
          </mxGeometry>
        </mxCell>
        <mxCell id="8zWX4DSV_wn8XyTYf-UK-95" value="offer in different public panel" style="edgeLabel;html=1;align=center;verticalAlign=middle;resizable=0;points=[];fontSize=18;" parent="8zWX4DSV_wn8XyTYf-UK-94" vertex="1" connectable="0">
          <mxGeometry x="0.3699" y="1" relative="1" as="geometry">
            <mxPoint as="offset" />
          </mxGeometry>
        </mxCell>
        <mxCell id="8zWX4DSV_wn8XyTYf-UK-99" value="&lt;font&gt;-&lt;/font&gt;" style="text;html=1;align=center;verticalAlign=middle;resizable=0;points=[];autosize=1;strokeColor=none;fillColor=none;fontSize=18;" parent="Md7voPXawlqijYOtu8PX-1" vertex="1">
          <mxGeometry x="3003.52" y="1659.7169811320755" width="30" height="40" as="geometry" />
        </mxCell>
        <mxCell id="P4KERE7mAreb36h-4E0k-8" value="&lt;font&gt;Figure 3.2 : Level Zero DFD&lt;/font&gt;" style="text;html=1;align=center;verticalAlign=middle;resizable=0;points=[];autosize=1;strokeColor=none;fillColor=none;rotation=-90;fontSize=18;" parent="Md7voPXawlqijYOtu8PX-1" vertex="1">
          <mxGeometry x="2703.678709677419" y="1063.1132075471696" width="250" height="40" as="geometry" />
        </mxCell>
      </root>
    </mxGraphModel>
  </diagram>
</mxfile>
